<svg xmlns="http://www.w3.org/2000/svg" version="1.1" xmlns:xlink="http://www.w3.org/1999/xlink" xmlns:svgjs="http://svgjs.dev/svgjs" width="1440" height="560" preserveAspectRatio="none" viewBox="0 0 1440 560"><g mask="url(&quot;#SvgjsMask1002&quot;)" fill="none"><rect width="1440" height="560" x="0" y="0" fill="rgba(17, 16, 16, 1)"></rect><path d="M355.17 603.17C531.89 587.43 651.08 222.33 953.7 221.83 1256.33 221.33 1394.37 420.75 1552.24 423.43" stroke="rgba(202, 16, 47, 1)" stroke-width="2"></path><path d="M366.36 604.8C498.84 573.38 456.38 219.62 750.18 218.42 1043.99 217.22 1322.23 368.9 1517.83 369.62" stroke="rgba(202, 16, 47, 1)" stroke-width="2"></path><path d="M521.26 572.91C662.74 572.53 787.74 478.14 1078.59 474.59 1369.43 471.04 1484.75 244.14 1635.91 239.39" stroke="rgba(202, 16, 47, 1)" stroke-width="2"></path><path d="M431.12 662.65C586.32 612.33 614.67 174.36 849.72 161.98 1084.76 149.6 1059.02 231.98 1268.31 231.98 1477.61 231.98 1580.81 162.22 1686.91 161.98" stroke="rgba(202, 16, 47, 1)" stroke-width="2"></path><path d="M665.07 597.96C777.17 536.72 717.74 164.52 928.03 159.86 1138.31 155.2 1317.52 304.12 1453.94 305.46" stroke="rgba(202, 16, 47, 1)" stroke-width="2"></path></g><defs><mask id="SvgjsMask1002"><rect width="1440" height="560" fill="#ffffff"></rect></mask></defs></svg>