<?xml version="1.0" encoding="utf-8"?>
<!-- Generator: Adobe Illustrator 23.0.2, SVG Export Plug-In . SVG Version: 6.00 Build 0)  -->
<svg version="1.1" id="Layer_1" xmlns="http://www.w3.org/2000/svg" xmlns:xlink="http://www.w3.org/1999/xlink" x="0px" y="0px"
	 viewBox="0 0 1887.32 646.47" style="enable-background:new 0 0 1887.32 646.47;" xml:space="preserve">
<style type="text/css">
	.st0{fill:#FFFFFF;}
	.st1{fill:#AA085D;}
	.st2{fill:#EEE5C2;}
	.st3{fill:#F4F4F4;}
	.st4{fill:#08164F;}
	.st5{fill:#191919;}
	.st6{fill:#FF8908;}
	.st7{fill:#FFDF08;}
	.st8{fill:#FA981B;}
	.st9{fill:#ED3624;}
	.st10{fill:#0E8897;}
	.st11{fill:#111111;}
	.st12{fill:#FFC900;}
	.st13{fill:#4C00B9;}
	.st14{fill:#FF6600;}
	.st15{fill:#FF0029;}
	.st16{fill:#B300D4;}
	.st17{fill:none;}
</style>
<text transform="matrix(1 0 0 1 -2009.0867 -3596.5479)" style="font-family:'Bogue-Black'; font-size:154.3175px;">videa</text>
<path d="M-1989.29-3530.21c1.44-1.33,3.4-2.01,5.86-2.01h33.02c2.36,0,4.27,0.59,5.71,1.77c1.44,1.18,2.16,2.75,2.16,4.71
	c0,1.54-0.77,3.47-2.31,5.79c-1.54,2.31-2.32,4.24-2.32,5.79c0,1.13,0.36,2.78,1.08,4.94l10.65,29.94l9.72-27.47
	c1.13-3.09,1.7-5.81,1.7-8.18c0-1.75-0.77-3.6-2.32-5.56c-1.54-1.95-2.31-3.7-2.31-5.25c0-1.95,0.64-3.52,1.93-4.71
	c1.29-1.18,2.86-1.77,4.71-1.77h15.74c2.57,0,4.55,0.59,5.94,1.77c1.39,1.18,2.08,2.7,2.08,4.55c0,2.26-1.03,4.43-3.09,6.48
	l-2.62,2.47c-1.96,1.75-3.96,5.15-6.02,10.19l-17.9,45.21c-1.75,4.32-4.99,6.48-9.72,6.48h-12.19c-5.04,0-8.49-2.16-10.34-6.48
	l-19.6-45.21c-1.54-3.4-3.55-6.43-6.02-9.1l-2.78-2.93c-1.95-2.06-2.93-4.27-2.93-6.64
	C-1991.45-3527.28-1990.74-3528.88-1989.29-3530.21"/>
<path d="M-1828.96-3522.19c7.61-7.72,17.85-11.57,30.71-11.57c4.63,0,9.21,0.57,13.73,1.7v-4.78c0-5.76-0.98-9.98-2.93-12.65
	l-1.85-2.47c-1.85-2.47-2.78-4.63-2.78-6.48c0-1.75,0.62-3.21,1.85-4.4c1.23-1.18,2.93-1.98,5.09-2.39l19.91-3.4
	c2.47-0.41,4.32-0.62,5.56-0.62c2.06,0,3.8,0.59,5.25,1.77c1.44,1.18,2.16,3.06,2.16,5.63v80.24c0,2.26,0.49,4.09,1.47,5.48
	c0.98,1.39,2.03,2.31,3.16,2.78c1.13,0.46,2.18,1.18,3.16,2.16c0.98,0.98,1.47,2.24,1.47,3.78c0,2.88-2.42,5.55-7.25,8.03
	c-2.99,1.54-6.64,2.91-10.96,4.09c-4.32,1.18-7.77,1.77-10.34,1.77c-3.81,0-6.4-0.67-7.79-2s-2.19-3.4-2.39-6.17v-3.86h-0.62
	c-5.66,8.02-14.04,12.04-25.15,12.04c-10.19,0-18.21-3.39-24.07-10.18c-5.86-6.79-8.8-15.9-8.8-27.31
	C-1840.38-3504.08-1836.57-3514.47-1828.96-3522.19 M-1794.39-3470.96c2.98,0,5.38-1.1,7.18-3.32c1.8-2.21,2.7-5.01,2.7-8.41v-25.62
	c0-3.7-0.88-6.58-2.62-8.64c-1.75-2.06-4.17-3.09-7.25-3.09c-8.23,0-12.35,8.13-12.35,24.38
	C-1806.74-3479.18-1802.62-3470.96-1794.39-3470.96"/>
<path d="M-1725.11-3522.65c8.23-7.41,18.72-11.11,31.48-11.11c11.21,0,20.22,2.81,27.01,8.41c6.79,5.61,10.19,12.83,10.19,21.68
	c0,8.23-3.76,12.35-11.27,12.35h-36.42c2.16,12.55,9.1,18.83,20.83,18.83c5.25,0,10.18-1.7,14.81-5.09
	c2.88-2.06,5.14-3.09,6.79-3.09c3.19,0,4.78,1.75,4.78,5.25c0,3.6-2.52,7.61-7.56,12.04c-7.2,6.58-17.39,9.88-30.56,9.88
	c-13.27,0-23.66-3.7-31.17-11.11c-7.51-7.41-11.27-16.87-11.27-28.39C-1737.45-3505.26-1733.34-3515.14-1725.11-3522.65
	 M-1704.58-3503.83h10.96c5.86,0,8.8-2.62,8.8-7.87c0-2.88-0.77-5.22-2.32-7.02c-1.54-1.8-3.65-2.7-6.33-2.7
	C-1700.26-3521.42-1703.96-3515.55-1704.58-3503.83"/>
<path d="M-1648.57-3476.2c0-2.67,0.33-5.07,1-7.18c0.67-2.11,2.03-4.37,4.09-6.79c2.06-2.42,4.83-4.47,8.33-6.17
	c3.5-1.7,8.31-3.19,14.43-4.48c6.12-1.28,13.35-2.13,21.68-2.55v-2.01c0-4.73-1-8.31-3.01-10.72c-2.01-2.42-4.76-3.63-8.26-3.63
	c-2.78,0-5.02,0.8-6.71,2.39c-1.7,1.6-2.91,3.34-3.63,5.25c-0.72,1.91-2.03,3.65-3.94,5.25c-1.91,1.6-4.4,2.39-7.48,2.39
	c-3.7,0-6.64-0.98-8.8-2.93c-2.16-1.95-3.24-4.48-3.24-7.56c0-5.66,3.57-10.21,10.72-13.66c7.15-3.45,16.28-5.17,27.39-5.17
	c12.96,0,22.73,2.55,29.32,7.64c6.58,5.09,9.88,12.47,9.88,22.14v22.38c0,2.26,0.49,4.09,1.47,5.48c0.98,1.39,2.03,2.31,3.16,2.78
	c1.13,0.46,2.18,1.18,3.16,2.16c0.98,0.98,1.47,2.24,1.47,3.78c0,1.75-0.54,3.19-1.62,4.32c-1.08,1.13-2.96,2.37-5.63,3.7
	c-3.09,1.65-6.87,3.03-11.34,4.17c-4.47,1.13-8.1,1.7-10.88,1.7c-6.17,0-9.26-2.67-9.26-8.02v-4.01h-0.62
	c-3.7,3.81-7.48,6.77-11.34,8.87c-3.86,2.11-8.67,3.16-14.43,3.16c-8.02,0-14.35-2.01-18.98-6.02
	C-1646.25-3463.55-1648.57-3469.1-1648.57-3476.2 M-1616.31-3479.6c0,5.76,2.78,8.64,8.33,8.64c2.47,0,4.58-0.7,6.33-2.08
	c1.75-1.39,2.62-3.27,2.62-5.63v-12.96C-1610.55-3490.3-1616.31-3486.28-1616.31-3479.6"/>
<path d="M-1892.82-3461.24c0-2.16,0.93-4.22,2.78-6.17l2.01-2.31c1.85-2.16,2.78-6.12,2.78-11.88v-19.91
	c0-5.66-0.98-9.77-2.93-12.34l-1.85-2.47c-1.85-2.37-2.78-4.53-2.78-6.48c0-1.75,0.64-3.24,1.93-4.48c1.29-1.23,3.01-2.01,5.17-2.31
	l19.91-3.09c1.65-0.31,3.5-0.46,5.56-0.46c4.83,0,7.25,2.42,7.25,7.25v44.29c0,5.45,0.98,9.41,2.93,11.88l1.85,2.31
	c1.85,2.26,2.78,4.27,2.78,6.02c0,2.16-0.69,3.86-2.08,5.09c-1.39,1.24-3.32,1.85-5.79,1.85h-31.79c-2.37,0-4.24-0.59-5.63-1.77
	C-1892.13-3457.4-1892.82-3459.07-1892.82-3461.24"/>
<path class="st0" d="M-1872.01-3522.09c-6.61,0-12.14-1.78-16.44-5.3c-4.53-3.71-6.93-9.05-6.93-15.44c0-6.31,2.43-11.61,7.03-15.31
	c4.34-3.5,9.83-5.27,16.33-5.27c6.51,0,11.99,1.78,16.28,5.3c4.53,3.71,6.93,8.99,6.93,15.29c0,6.52-2.41,11.89-6.96,15.55
	C-1860.05-3523.84-1865.52-3522.09-1872.01-3522.09"/>
<path d="M-1890.38-3542.83c0-4.83,1.72-8.64,5.17-11.42c3.45-2.78,7.84-4.17,13.19-4.17c5.35,0,9.72,1.39,13.12,4.17
	c3.4,2.78,5.09,6.58,5.09,11.42c0,5.04-1.7,8.93-5.09,11.65c-3.39,2.73-7.77,4.09-13.12,4.09c-5.45,0-9.88-1.39-13.27-4.17
	C-1888.68-3534.03-1890.38-3537.89-1890.38-3542.83"/>
<path d="M-1982.5-3366.86c1.44-1.33,3.4-2.01,5.86-2.01h33.02c2.36,0,4.27,0.59,5.71,1.77c1.44,1.18,2.16,2.75,2.16,4.71
	c0,1.54-0.77,3.47-2.31,5.79c-1.54,2.31-2.32,4.24-2.32,5.79c0,1.13,0.36,2.78,1.08,4.94l10.65,29.94l9.72-27.47
	c1.13-3.09,1.7-5.81,1.7-8.18c0-1.75-0.77-3.6-2.32-5.56c-1.54-1.95-2.31-3.7-2.31-5.25c0-1.95,0.64-3.52,1.93-4.71
	c1.29-1.18,2.86-1.77,4.71-1.77h15.74c2.57,0,4.55,0.59,5.94,1.77c1.39,1.18,2.08,2.7,2.08,4.55c0,2.26-1.03,4.43-3.09,6.48
	l-2.62,2.47c-1.96,1.75-3.96,5.15-6.02,10.19l-17.9,45.21c-1.75,4.32-4.99,6.48-9.72,6.48h-12.19c-5.04,0-8.49-2.16-10.34-6.48
	l-19.6-45.21c-1.54-3.4-3.55-6.43-6.02-9.1l-2.78-2.93c-1.95-2.06-2.93-4.27-2.93-6.64
	C-1984.66-3363.93-1983.94-3365.52-1982.5-3366.86"/>
<path d="M-1833.16-3358.83c7.61-7.72,17.85-11.57,30.71-11.57c4.63,0,9.21,0.57,13.73,1.7v-4.78c0-5.76-0.98-9.98-2.93-12.65
	l-1.85-2.47c-1.85-2.47-2.78-4.63-2.78-6.48c0-1.75,0.62-3.21,1.85-4.4c1.23-1.18,2.93-1.98,5.09-2.39l19.91-3.4
	c2.47-0.41,4.32-0.62,5.55-0.62c2.06,0,3.81,0.59,5.25,1.77c1.44,1.18,2.16,3.06,2.16,5.63v80.24c0,2.26,0.49,4.09,1.47,5.48
	c0.98,1.39,2.03,2.31,3.16,2.78c1.13,0.46,2.18,1.18,3.16,2.16c0.98,0.98,1.47,2.24,1.47,3.78c0,2.88-2.42,5.55-7.25,8.03
	c-2.99,1.54-6.64,2.91-10.96,4.09c-4.32,1.18-7.77,1.77-10.34,1.77c-3.81,0-6.4-0.67-7.79-2s-2.19-3.4-2.39-6.17v-3.86h-0.62
	c-5.66,8.02-14.04,12.04-25.15,12.04c-10.19,0-18.21-3.39-24.07-10.18c-5.87-6.79-8.8-15.9-8.8-27.31
	C-1844.58-3340.72-1840.78-3351.12-1833.16-3358.83 M-1798.6-3307.6c2.98,0,5.38-1.1,7.18-3.32c1.8-2.21,2.7-5.01,2.7-8.41v-25.62
	c0-3.7-0.88-6.58-2.62-8.64c-1.75-2.06-4.17-3.09-7.25-3.09c-8.23,0-12.35,8.13-12.35,24.38
	C-1810.94-3315.83-1806.83-3307.6-1798.6-3307.6"/>
<path d="M-1740.31-3368.3c8.23-7.41,18.72-11.11,31.48-11.11c11.21,0,20.22,2.8,27.01,8.41c6.79,5.61,10.19,12.84,10.19,21.68
	c0,8.23-3.76,12.35-11.27,12.35h-36.42c2.16,12.55,9.1,18.83,20.83,18.83c5.25,0,10.18-1.7,14.81-5.09
	c2.88-2.06,5.14-3.09,6.79-3.09c3.19,0,4.78,1.75,4.78,5.25c0,3.6-2.52,7.61-7.56,12.04c-7.2,6.59-17.39,9.88-30.56,9.88
	c-13.27,0-23.66-3.7-31.17-11.11c-7.51-7.41-11.27-16.87-11.27-28.39C-1752.65-3350.91-1748.54-3360.78-1740.31-3368.3
	 M-1719.78-3349.47h10.96c5.86,0,8.8-2.62,8.8-7.87c0-2.88-0.77-5.22-2.32-7.02c-1.54-1.8-3.65-2.7-6.33-2.7
	C-1715.46-3367.06-1719.17-3361.2-1719.78-3349.47"/>
<path d="M-1669.77-3312.85c0-2.67,0.33-5.07,1-7.18c0.67-2.11,2.03-4.37,4.09-6.79c2.06-2.42,4.84-4.47,8.33-6.17
	c3.5-1.7,8.31-3.19,14.43-4.48c6.12-1.28,13.35-2.13,21.68-2.55v-2.01c0-4.73-1-8.31-3.01-10.72c-2.01-2.42-4.76-3.63-8.26-3.63
	c-2.78,0-5.02,0.8-6.71,2.39c-1.7,1.6-2.91,3.34-3.63,5.25c-0.72,1.91-2.03,3.65-3.93,5.25c-1.91,1.6-4.4,2.39-7.48,2.39
	c-3.7,0-6.64-0.98-8.8-2.93c-2.16-1.95-3.24-4.48-3.24-7.56c0-5.66,3.57-10.21,10.72-13.66c7.15-3.45,16.28-5.17,27.39-5.17
	c12.96,0,22.73,2.55,29.32,7.64c6.58,5.09,9.88,12.47,9.88,22.14v22.38c0,2.26,0.49,4.09,1.47,5.48c0.98,1.39,2.03,2.31,3.16,2.78
	c1.13,0.46,2.18,1.18,3.16,2.16c0.98,0.98,1.47,2.24,1.47,3.78c0,1.75-0.54,3.19-1.62,4.32c-1.08,1.13-2.96,2.37-5.63,3.7
	c-3.09,1.65-6.87,3.03-11.34,4.17c-4.47,1.13-8.1,1.7-10.88,1.7c-6.17,0-9.26-2.67-9.26-8.02v-4.01h-0.62
	c-3.7,3.81-7.48,6.77-11.34,8.87c-3.86,2.11-8.67,3.16-14.43,3.16c-8.03,0-14.35-2.01-18.98-6.02
	C-1667.45-3300.19-1669.77-3305.75-1669.77-3312.85 M-1637.52-3316.24c0,5.76,2.78,8.64,8.33,8.64c2.47,0,4.58-0.7,6.33-2.08
	c1.75-1.39,2.62-3.27,2.62-5.63v-12.96C-1631.76-3326.94-1637.52-3322.93-1637.52-3316.24"/>
<path d="M-1889.02-3297.88c0-2.16,0.93-4.22,2.78-6.17l2.01-2.31c1.85-2.16,2.78-6.12,2.78-11.88v-19.91
	c0-5.66-0.98-9.77-2.93-12.34l-1.85-2.47c-1.85-2.37-2.78-4.53-2.78-6.48c0-1.75,0.64-3.24,1.93-4.48c1.29-1.23,3.01-2.01,5.17-2.31
	l19.91-3.09c1.65-0.31,3.5-0.46,5.56-0.46c4.83,0,7.25,2.42,7.25,7.25v44.29c0,5.45,0.98,9.41,2.93,11.88l1.85,2.31
	c1.85,2.26,2.78,4.27,2.78,6.02c0,2.16-0.69,3.86-2.08,5.09c-1.39,1.23-3.32,1.85-5.79,1.85h-31.79c-2.37,0-4.24-0.59-5.63-1.77
	C-1888.33-3294.05-1889.02-3295.72-1889.02-3297.88"/>
<path class="st0" d="M-1868.21-3358.73c-6.61,0-12.14-1.78-16.44-5.3c-4.53-3.71-6.93-9.05-6.93-15.45c0-6.31,2.43-11.61,7.03-15.31
	c4.34-3.5,9.84-5.27,16.33-5.27c6.51,0,11.99,1.78,16.28,5.3c4.53,3.71,6.93,9,6.93,15.29c0,6.52-2.41,11.89-6.96,15.55
	C-1856.25-3360.48-1861.72-3358.73-1868.21-3358.73"/>
<path d="M-1886.58-3379.47c0-4.83,1.72-8.64,5.17-11.42c3.45-2.78,7.84-4.17,13.2-4.17c5.35,0,9.72,1.39,13.12,4.17
	c3.4,2.78,5.09,6.58,5.09,11.42c0,5.04-1.7,8.93-5.09,11.65c-3.39,2.73-7.77,4.09-13.12,4.09c-5.45,0-9.88-1.39-13.27-4.17
	C-1884.88-3370.68-1886.58-3374.54-1886.58-3379.47"/>
<path d="M-1978.72-3221.89c1.44-1.33,3.39-2.01,5.86-2.01h33.02c2.36,0,4.27,0.59,5.71,1.77c1.44,1.18,2.16,2.75,2.16,4.71
	c0,1.54-0.77,3.47-2.31,5.79c-1.54,2.32-2.32,4.24-2.32,5.79c0,1.13,0.36,2.78,1.08,4.94l10.65,29.94l9.72-27.47
	c1.13-3.09,1.7-5.81,1.7-8.18c0-1.75-0.77-3.6-2.32-5.56c-1.54-1.95-2.31-3.7-2.31-5.25c0-1.95,0.64-3.52,1.93-4.71
	c1.29-1.18,2.85-1.77,4.71-1.77h15.74c2.57,0,4.55,0.59,5.94,1.77c1.39,1.18,2.08,2.7,2.08,4.55c0,2.26-1.03,4.43-3.09,6.48
	l-2.62,2.47c-1.95,1.75-3.96,5.15-6.02,10.19l-17.9,45.21c-1.75,4.32-4.99,6.48-9.72,6.48h-12.19c-5.04,0-8.49-2.16-10.34-6.48
	l-19.6-45.21c-1.54-3.4-3.55-6.43-6.02-9.1l-2.78-2.93c-1.96-2.06-2.93-4.27-2.93-6.64
	C-1980.88-3218.96-1980.16-3220.56-1978.72-3221.89"/>
<path d="M-1829.38-3213.87c7.61-7.72,17.85-11.57,30.71-11.57c4.63,0,9.21,0.57,13.73,1.7v-4.78c0-5.76-0.98-9.98-2.93-12.65
	l-1.85-2.47c-1.85-2.47-2.78-4.63-2.78-6.48c0-1.75,0.62-3.21,1.85-4.4c1.23-1.18,2.93-1.98,5.09-2.39l19.91-3.4
	c2.47-0.41,4.32-0.62,5.55-0.62c2.06,0,3.81,0.59,5.25,1.77c1.44,1.18,2.16,3.06,2.16,5.63v80.24c0,2.26,0.49,4.09,1.47,5.48
	c0.98,1.39,2.03,2.31,3.16,2.78c1.13,0.46,2.18,1.18,3.16,2.16c0.98,0.98,1.47,2.24,1.47,3.78c0,2.88-2.42,5.55-7.25,8.02
	c-2.99,1.54-6.64,2.91-10.96,4.09c-4.32,1.18-7.77,1.77-10.34,1.77c-3.81,0-6.4-0.67-7.79-2c-1.39-1.34-2.19-3.4-2.39-6.17v-3.86
	h-0.62c-5.66,8.02-14.04,12.04-25.15,12.04c-10.18,0-18.21-3.4-24.07-10.18c-5.86-6.79-8.8-15.9-8.8-27.32
	C-1840.8-3195.76-1837-3206.15-1829.38-3213.87 M-1794.82-3162.64c2.98,0,5.38-1.1,7.18-3.32c1.8-2.21,2.7-5.02,2.7-8.41v-25.62
	c0-3.7-0.88-6.58-2.62-8.64c-1.75-2.06-4.17-3.09-7.25-3.09c-8.23,0-12.35,8.13-12.35,24.38
	C-1807.16-3170.87-1803.05-3162.64-1794.82-3162.64"/>
<path d="M-1743.66-3214.27c6.62-8.87,16.19-14.56,28.7-17.05c11-2.19,20.37-1.2,28.13,2.97c7.76,4.17,12.5,10.6,14.23,19.27
	c1.61,8.07-1.27,12.84-8.63,14.31l-35.72,7.12c4.57,11.89,12.61,16.68,24.11,14.39c5.15-1.03,9.66-3.66,13.53-7.89
	c2.42-2.58,4.44-4.03,6.06-4.35c3.13-0.62,5.03,0.78,5.72,4.21c0.7,3.53-0.98,7.96-5.06,13.28c-5.78,7.87-15.12,13.08-28.04,15.66
	c-13.02,2.59-23.93,0.99-32.74-4.8c-8.81-5.8-14.35-14.34-16.6-25.64C-1752.37-3194.8-1750.26-3205.29-1743.66-3214.27
	 M-1719.85-3199.82l10.75-2.14c5.75-1.15,8.11-4.29,7.09-9.44c-0.56-2.82-1.78-4.97-3.64-6.43c-1.86-1.46-4.11-1.93-6.73-1.41
	C-1719.05-3217.91-1721.54-3211.44-1719.85-3199.82"/>
<path d="M-1665.99-3167.88c0-2.67,0.33-5.07,1-7.18c0.67-2.11,2.03-4.37,4.09-6.79c2.06-2.42,4.83-4.48,8.33-6.17
	c3.5-1.7,8.31-3.19,14.43-4.48c6.12-1.29,13.35-2.13,21.68-2.55v-2.01c0-4.73-1-8.31-3.01-10.73c-2.01-2.42-4.76-3.63-8.26-3.63
	c-2.78,0-5.02,0.8-6.71,2.39c-1.7,1.6-2.91,3.34-3.63,5.25c-0.72,1.91-2.03,3.65-3.94,5.25c-1.9,1.6-4.4,2.39-7.48,2.39
	c-3.7,0-6.64-0.98-8.8-2.93c-2.16-1.95-3.24-4.48-3.24-7.56c0-5.66,3.57-10.21,10.73-13.66c7.15-3.45,16.28-5.17,27.39-5.17
	c12.96,0,22.73,2.55,29.32,7.64c6.58,5.09,9.88,12.48,9.88,22.14v22.38c0,2.26,0.49,4.09,1.47,5.48c0.98,1.39,2.03,2.31,3.16,2.78
	c1.13,0.46,2.19,1.18,3.16,2.16c0.98,0.98,1.47,2.24,1.47,3.78c0,1.75-0.54,3.19-1.62,4.32c-1.08,1.13-2.96,2.37-5.63,3.7
	c-3.09,1.65-6.87,3.04-11.34,4.17c-4.47,1.13-8.1,1.7-10.88,1.7c-6.17,0-9.26-2.67-9.26-8.02v-4.01h-0.62
	c-3.7,3.81-7.48,6.77-11.34,8.87c-3.86,2.11-8.67,3.16-14.43,3.16c-8.03,0-14.35-2.01-18.98-6.02
	C-1663.68-3155.23-1665.99-3160.78-1665.99-3167.88 M-1633.74-3171.28c0,5.76,2.78,8.64,8.33,8.64c2.47,0,4.58-0.69,6.33-2.08
	c1.75-1.39,2.62-3.26,2.62-5.63v-12.96C-1627.98-3181.98-1633.74-3177.96-1633.74-3171.28"/>
<path d="M-1885.25-3152.92c0-2.16,0.93-4.22,2.78-6.17l2.01-2.31c1.85-2.16,2.78-6.12,2.78-11.88v-19.91
	c0-5.66-0.98-9.77-2.93-12.34l-1.85-2.47c-1.85-2.37-2.78-4.53-2.78-6.48c0-1.75,0.64-3.24,1.93-4.48c1.29-1.23,3.01-2.01,5.17-2.31
	l19.91-3.09c1.64-0.31,3.5-0.46,5.56-0.46c4.84,0,7.25,2.42,7.25,7.25v44.29c0,5.45,0.98,9.41,2.93,11.88l1.85,2.31
	c1.85,2.26,2.78,4.27,2.78,6.02c0,2.16-0.69,3.86-2.08,5.09c-1.39,1.24-3.32,1.85-5.79,1.85h-31.79c-2.37,0-4.24-0.59-5.63-1.77
	C-1884.55-3149.08-1885.25-3150.76-1885.25-3152.92"/>
<path class="st0" d="M-1864.44-3213.77c-6.61,0-12.14-1.78-16.44-5.3c-4.53-3.71-6.93-9.05-6.93-15.45c0-6.31,2.43-11.61,7.03-15.31
	c4.34-3.5,9.84-5.27,16.33-5.27c6.51,0,11.99,1.78,16.28,5.3c4.53,3.71,6.93,8.99,6.93,15.29c0,6.52-2.41,11.89-6.96,15.55
	C-1852.48-3215.52-1857.94-3213.77-1864.44-3213.77"/>
<path d="M-1882.8-3234.51c0-4.83,1.72-8.64,5.17-11.42c3.45-2.78,7.84-4.17,13.2-4.17c5.35,0,9.72,1.39,13.12,4.17
	c3.4,2.78,5.09,6.58,5.09,11.42c0,5.04-1.7,8.93-5.09,11.65c-3.39,2.73-7.77,4.09-13.12,4.09c-5.45,0-9.88-1.39-13.27-4.17
	C-1881.1-3225.72-1882.8-3229.57-1882.8-3234.51"/>
<rect x="-795.17" y="-3734.81" class="st1" width="516" height="296"/>
<rect x="-1362.17" y="-3422.81" class="st2" width="424" height="296"/>
<rect x="136.87" y="-2109.45" class="st3" width="2032.32" height="1408.82"/>
<rect x="-795.17" y="-3421.81" class="st4" width="516" height="296"/>
<path class="st5" d="M-1340.44-3311.18c1.28-1.18,3.01-1.78,5.2-1.78h29.29c2.1,0,3.78,0.53,5.06,1.57
	c1.28,1.05,1.92,2.44,1.92,4.17c0,1.37-0.68,3.08-2.05,5.13c-1.37,2.05-2.05,3.76-2.05,5.13c0,1,0.32,2.46,0.96,4.38l9.44,26.55
	l8.62-24.36c1-2.74,1.51-5.15,1.51-7.25c0-1.55-0.68-3.19-2.05-4.93c-1.37-1.73-2.05-3.28-2.05-4.65c0-1.73,0.57-3.12,1.71-4.17
	c1.14-1.05,2.53-1.57,4.17-1.57h13.96c2.28,0,4.04,0.53,5.27,1.57c1.23,1.05,1.85,2.4,1.85,4.04c0,2.01-0.91,3.92-2.74,5.75
	l-2.33,2.19c-1.73,1.55-3.51,4.56-5.34,9.03l-15.88,40.1c-1.55,3.83-4.43,5.75-8.62,5.75h-10.81c-4.47,0-7.53-1.92-9.17-5.75
	l-17.38-40.1c-1.37-3.01-3.15-5.7-5.34-8.07l-2.46-2.6c-1.73-1.82-2.6-3.79-2.6-5.89C-1342.36-3308.58-1341.72-3310-1340.44-3311.18
	"/>
<path class="st5" d="M-1208-3304.06c6.75-6.84,15.83-10.27,27.23-10.27c4.11,0,8.17,0.5,12.18,1.51v-4.24
	c0-5.11-0.87-8.85-2.6-11.22l-1.64-2.19c-1.64-2.19-2.46-4.11-2.46-5.75c0-1.55,0.55-2.85,1.64-3.9c1.09-1.05,2.6-1.76,4.52-2.12
	l17.66-3.01c2.19-0.36,3.83-0.55,4.93-0.55c1.82,0,3.38,0.53,4.65,1.57c1.28,1.05,1.92,2.72,1.92,5v71.17c0,2.01,0.43,3.63,1.3,4.86
	c0.87,1.23,1.8,2.05,2.81,2.46c1,0.41,1.94,1.05,2.81,1.92c0.87,0.87,1.3,1.98,1.3,3.35c0,2.55-2.15,4.93-6.43,7.12
	c-2.65,1.37-5.89,2.58-9.72,3.63c-3.83,1.05-6.89,1.57-9.17,1.57c-3.38,0-5.68-0.59-6.91-1.78c-1.23-1.19-1.94-3.01-2.12-5.47v-3.42
	h-0.55c-5.02,7.12-12.45,10.67-22.31,10.67c-9.03,0-16.15-3.01-21.35-9.03c-5.2-6.02-7.8-14.1-7.8-24.22
	C-1218.13-3288.01-1214.75-3297.22-1208-3304.06 M-1177.34-3258.63c2.64,0,4.77-0.98,6.36-2.94c1.6-1.96,2.4-4.45,2.4-7.46v-22.72
	c0-3.28-0.78-5.84-2.33-7.66c-1.55-1.82-3.7-2.74-6.43-2.74c-7.3,0-10.95,7.21-10.95,21.63
	C-1188.29-3265.93-1184.65-3258.63-1177.34-3258.63"/>
<path class="st5" d="M-1131.97-3304.42c5.87-7.87,14.36-12.91,25.45-15.12c9.75-1.94,18.07-1.07,24.95,2.63
	c6.88,3.7,11.08,9.4,12.62,17.09c1.43,7.16-1.13,11.39-7.66,12.69l-31.68,6.32c4.06,10.54,11.18,14.8,21.38,12.76
	c4.56-0.91,8.56-3.24,12-7c2.15-2.29,3.94-3.58,5.37-3.86c2.77-0.55,4.46,0.69,5.07,3.73c0.63,3.13-0.87,7.06-4.49,11.78
	c-5.12,6.98-13.41,11.6-24.87,13.89c-11.54,2.3-21.22,0.88-29.04-4.26c-7.82-5.14-12.72-12.72-14.72-22.74
	C-1139.7-3287.15-1137.83-3296.46-1131.97-3304.42 M-1110.86-3291.6l9.53-1.9c5.1-1.02,7.2-3.81,6.29-8.37
	c-0.5-2.5-1.58-4.41-3.23-5.71c-1.65-1.3-3.65-1.72-5.97-1.25C-1110.15-3307.65-1112.35-3301.91-1110.86-3291.6"/>
<path class="st5" d="M-1063.09-3263.28c0-2.37,0.3-4.49,0.89-6.36c0.59-1.87,1.8-3.88,3.63-6.02c1.82-2.14,4.29-3.97,7.39-5.47
	c3.1-1.51,7.37-2.83,12.8-3.97c5.43-1.14,11.84-1.89,19.23-2.26v-1.78c0-4.19-0.89-7.37-2.67-9.51c-1.78-2.14-4.22-3.22-7.32-3.22
	c-2.46,0-4.45,0.71-5.95,2.12c-1.51,1.42-2.58,2.97-3.22,4.65c-0.64,1.69-1.8,3.24-3.49,4.65c-1.69,1.42-3.9,2.12-6.64,2.12
	c-3.29,0-5.89-0.87-7.8-2.6c-1.92-1.73-2.87-3.97-2.87-6.71c0-5.02,3.17-9.05,9.51-12.11c6.34-3.06,14.44-4.58,24.29-4.58
	c11.5,0,20.16,2.26,26,6.77c5.84,4.52,8.76,11.07,8.76,19.64v19.84c0,2.01,0.43,3.63,1.3,4.86c0.87,1.23,1.8,2.05,2.81,2.46
	c1,0.41,1.94,1.05,2.81,1.92c0.87,0.87,1.3,1.98,1.3,3.35c0,1.55-0.48,2.83-1.44,3.83c-0.96,1-2.63,2.1-5,3.28
	c-2.74,1.46-6.09,2.69-10.06,3.7c-3.97,1-7.19,1.51-9.65,1.51c-5.47,0-8.21-2.37-8.21-7.12v-3.56h-0.55
	c-3.29,3.38-6.64,6-10.06,7.87c-3.42,1.87-7.69,2.81-12.8,2.81c-7.12,0-12.73-1.78-16.83-5.34
	C-1061.04-3252.06-1063.09-3256.98-1063.09-3263.28 M-1034.48-3266.29c0,5.11,2.46,7.66,7.39,7.66c2.19,0,4.06-0.62,5.61-1.85
	c1.55-1.23,2.33-2.9,2.33-4.99v-11.5C-1029.38-3275.78-1034.48-3272.22-1034.48-3266.29"/>
<path class="st5" d="M-1257.54-3250.01c0-1.92,0.82-3.74,2.46-5.47l1.78-2.05c1.64-1.92,2.46-5.43,2.46-10.54v-17.66
	c0-5.02-0.87-8.67-2.6-10.95l-1.64-2.19c-1.64-2.1-2.46-4.01-2.46-5.75c0-1.55,0.57-2.87,1.71-3.97c1.14-1.09,2.67-1.78,4.58-2.05
	l17.66-2.74c1.46-0.27,3.1-0.41,4.93-0.41c4.29,0,6.43,2.15,6.43,6.43v39.28c0,4.84,0.87,8.35,2.6,10.54l1.64,2.05
	c1.64,2.01,2.46,3.79,2.46,5.34c0,1.92-0.62,3.42-1.85,4.52c-1.23,1.1-2.94,1.64-5.13,1.64h-28.19c-2.1,0-3.76-0.52-5-1.57
	C-1256.93-3246.61-1257.54-3248.09-1257.54-3250.01"/>
<path class="st2" d="M-1239.09-3303.98c-5.86,0-10.77-1.58-14.58-4.7c-4.02-3.29-6.14-8.03-6.14-13.7c0-5.6,2.16-10.29,6.24-13.58
	c3.85-3.1,8.72-4.68,14.48-4.68c5.77,0,10.63,1.58,14.44,4.7c4.02,3.29,6.14,7.98,6.14,13.56c0,5.78-2.14,10.55-6.17,13.79
	C-1228.48-3305.53-1233.33-3303.98-1239.09-3303.98"/>
<path class="st5" d="M-1255.38-3322.37c0-4.29,1.53-7.66,4.58-10.13c3.06-2.46,6.96-3.7,11.7-3.7c4.74,0,8.62,1.23,11.63,3.7
	c3.01,2.46,4.52,5.84,4.52,10.13c0,4.47-1.51,7.92-4.52,10.33c-3.01,2.42-6.89,3.63-11.63,3.63c-4.84,0-8.76-1.23-11.77-3.7
	C-1253.87-3314.57-1255.38-3317.99-1255.38-3322.37"/>
<path class="st6" d="M-956.39-3258.81c0,6.37-5.16,11.53-11.53,11.53c-6.37,0-11.53-5.16-11.53-11.53s5.16-11.53,11.53-11.53
	C-961.56-3270.34-956.39-3265.18-956.39-3258.81"/>
<rect x="-1362.17" y="-3202.81" class="st7" width="106" height="75"/>
<rect x="-1256.17" y="-3202.81" class="st8" width="106" height="75"/>
<rect x="-1150.17" y="-3202.81" class="st9" width="106" height="75"/>
<rect x="-1044.17" y="-3202.81" class="st10" width="106" height="75"/>
<path class="st11" d="M334.09-1622.44c5.86-5.44,13.83-8.17,23.89-8.17H492.5c9.63,0,17.38,2.42,23.26,7.23
	c5.86,4.82,8.8,11.22,8.8,19.17c0,6.29-3.14,14.15-9.43,23.57c-6.29,9.43-9.43,17.29-9.43,23.57c0,4.62,1.46,11.32,4.4,20.12
	l43.37,121.94l39.6-111.89c4.6-12.57,6.92-23.67,6.92-33.32c0-7.12-3.15-14.66-9.43-22.63c-6.28-7.95-9.42-15.08-9.42-21.37
	c0-7.95,2.61-14.35,7.85-19.17c5.24-4.81,11.63-7.23,19.17-7.23h64.12c10.47,0,18.54,2.42,24.2,7.23c5.66,4.82,8.49,11,8.49,18.54
	c0,9.22-4.19,18.02-12.57,26.4l-10.69,10.06c-7.96,7.13-16.13,20.96-24.51,41.49l-72.92,184.18c-7.13,17.6-20.33,26.4-39.6,26.4
	h-49.66c-20.54,0-34.57-8.8-42.12-26.4l-79.83-184.18c-6.28-13.83-14.45-26.19-24.51-37.09l-11.32-11.94
	c-7.96-8.38-11.94-17.38-11.94-27.03C325.29-1610.5,328.22-1616.99,334.09-1622.44"/>
<path class="st11" d="M942.38-1589.75c31.01-31.43,72.7-47.15,125.09-47.15c18.86,0,37.5,2.31,55.94,6.92v-19.49
	c0-23.46-3.98-40.64-11.94-51.55l-7.54-10.06c-7.54-10.06-11.31-18.86-11.31-26.4c0-7.12,2.51-13.09,7.54-17.91
	c5.03-4.81,11.94-8.06,20.74-9.74l81.09-13.83c10.06-1.67,17.6-2.51,22.63-2.51c8.38,0,15.5,2.41,21.37,7.22
	c5.86,4.83,8.8,12.47,8.8,22.95v326.87c0,9.22,1.98,16.66,5.97,22.31c3.98,5.66,8.27,9.43,12.88,11.32c4.61,1.89,8.9,4.82,12.88,8.8
	c3.98,3.98,5.97,9.11,5.97,15.4c0,11.74-9.85,22.63-29.54,32.68c-12.16,6.29-27.03,11.85-44.63,16.66
	c-17.6,4.81-31.65,7.23-42.12,7.23c-15.51,0-26.09-2.73-31.74-8.17c-5.66-5.44-8.91-13.83-9.74-25.14v-15.72h-2.52
	c-23.05,32.69-57.2,49.03-102.46,49.03c-41.49,0-74.17-13.83-98.06-41.49c-23.89-27.66-35.83-64.74-35.83-111.26
	C895.86-1515.99,911.37-1558.32,942.38-1589.75 M1083.19-1381.06c12.15,0,21.89-4.5,29.23-13.52c7.33-9.01,11-20.43,11-34.26
	v-104.34c0-15.09-3.57-26.82-10.69-35.2c-7.13-8.38-16.97-12.57-29.54-12.57c-33.53,0-50.29,33.11-50.29,99.32
	C1032.9-1414.58,1049.65-1381.06,1083.19-1381.06"/>
<path class="st11" d="M1291.57-1591.37c26.98-36.14,65.95-59.29,116.91-69.46c44.79-8.93,82.99-4.89,114.58,12.09
	c31.59,17,50.91,43.16,57.96,78.5c6.55,32.88-5.18,52.31-35.17,58.29l-145.48,29c18.63,48.42,51.36,67.96,98.22,58.61
	c20.96-4.18,39.33-14.89,55.13-32.14c9.86-10.5,18.09-16.43,24.66-17.73c12.73-2.54,20.5,3.18,23.29,17.15
	c2.87,14.39-4.01,32.43-20.62,54.11c-23.53,32.04-61.59,53.3-114.2,63.79c-53.02,10.57-97.48,4.05-133.38-19.56
	c-35.9-23.61-58.43-58.42-67.61-104.46C1256.1-1512.08,1264.67-1554.81,1291.57-1591.37 M1388.56-1532.51l43.77-8.72
	c23.43-4.67,33.05-17.49,28.87-38.45c-2.29-11.5-7.24-20.24-14.84-26.2c-7.6-5.96-16.74-7.88-27.42-5.75
	C1391.81-1606.22,1381.68-1579.85,1388.56-1532.51"/>
<path class="st11" d="M1607.94-1402.43c0-10.89,1.36-20.64,4.09-29.23c2.72-8.58,8.27-17.81,16.65-27.66
	c8.38-9.84,19.7-18.23,33.95-25.14c14.24-6.92,33.84-12.99,58.78-18.23c24.93-5.24,54.37-8.69,88.32-10.37v-8.17
	c0-19.27-4.09-33.84-12.26-43.68c-8.17-9.84-19.39-14.77-33.63-14.77c-11.32,0-20.43,3.25-27.34,9.74
	c-6.92,6.5-11.85,13.62-14.77,21.37c-2.94,7.76-8.28,14.88-16.03,21.37c-7.76,6.5-17.92,9.74-30.48,9.74
	c-15.09,0-27.03-3.98-35.83-11.94c-8.8-7.96-13.2-18.23-13.2-30.8c0-23.04,14.55-41.58,43.69-55.63
	c29.12-14.04,66.32-21.06,111.57-21.06c52.8,0,92.61,10.38,119.44,31.12c26.81,20.74,40.23,50.82,40.23,90.2v91.14
	c0,9.22,1.98,16.66,5.97,22.32c3.98,5.65,8.27,9.43,12.88,11.31c4.61,1.88,8.9,4.82,12.89,8.8c3.98,3.99,5.97,9.11,5.97,15.4
	c0,7.13-2.2,12.99-6.6,17.6c-4.4,4.62-12.05,9.64-22.95,15.08c-12.57,6.71-27.97,12.37-46.2,16.97c-18.23,4.61-33,6.92-44.32,6.92
	c-25.14,0-37.71-10.89-37.71-32.69v-16.34h-2.51c-15.09,15.51-30.48,27.56-46.21,36.15c-15.72,8.58-35.31,12.88-58.77,12.88
	c-32.69,0-58.46-8.17-77.32-24.52C1617.37-1350.89,1607.94-1373.52,1607.94-1402.43 M1739.32-1416.26c0,23.47,11.31,35.2,33.94,35.2
	c10.05,0,18.64-2.83,25.77-8.49c7.12-5.65,10.69-13.3,10.69-22.94v-52.8C1762.78-1459.84,1739.32-1443.5,1739.32-1416.26"/>
<path class="st11" d="M714.84-1341.47c0-8.8,3.77-17.18,11.31-25.14l8.17-9.43c7.54-8.8,11.31-24.93,11.31-48.4v-81.09
	c0-23.04-3.98-39.81-11.94-50.29l-7.54-10.06c-7.54-9.63-11.31-18.43-11.31-26.4c0-7.12,2.61-13.2,7.86-18.23
	c5.24-5.03,12.26-8.17,21.06-9.43l81.09-12.57c6.7-1.26,14.25-1.89,22.63-1.89c19.69,0,29.54,9.85,29.54,29.55v180.41
	c0,22.22,3.98,38.34,11.94,48.4l7.54,9.43c7.54,9.22,11.31,17.4,11.31,24.52c0,8.8-2.83,15.72-8.49,20.74
	c-5.65,5.03-13.51,7.54-23.57,7.54H746.27c-9.64,0-17.28-2.41-22.94-7.23C717.67-1325.85,714.84-1332.67,714.84-1341.47"/>
<path class="st3" d="M799.6-1589.35c-26.93,0-49.46-7.26-66.96-21.57c-18.46-15.1-28.21-36.86-28.21-62.91
	c0-25.71,9.9-47.28,28.64-62.37c17.68-14.25,40.06-21.48,66.52-21.48c26.52,0,48.83,7.26,66.33,21.58
	c18.46,15.1,28.21,36.63,28.21,62.27c0,26.55-9.8,48.45-28.36,63.34C848.32-1596.46,826.05-1589.35,799.6-1589.35"/>
<path class="st11" d="M724.8-1673.83c0-19.69,7.01-35.2,21.06-46.51c14.04-11.31,31.95-16.97,53.74-16.97
	c21.78,0,39.6,5.66,53.43,16.97c13.83,11.31,20.75,26.82,20.75,46.51c0,20.54-6.92,36.36-20.75,47.46
	c-13.83,11.1-31.65,16.65-53.43,16.65c-22.21,0-40.23-5.65-54.06-16.97C731.71-1638,724.8-1653.71,724.8-1673.83"/>
<rect x="136.87" y="-1095.67" class="st12" width="2032.32" height="90.43"/>
<rect x="136.87" y="-791.06" class="st13" width="2032.32" height="90.43"/>
<rect x="136.87" y="-1024.27" class="st14" width="2032.32" height="90.43"/>
<rect x="136.87" y="-948.12" class="st15" width="2032.32" height="90.43"/>
<rect x="136.87" y="-871.97" class="st16" width="2032.32" height="90.43"/>
<rect x="-2185.51" y="-2109.45" class="st11" width="2032.32" height="1408.82"/>
<path class="st3" d="M-1988.29-1622.44c5.86-5.44,13.83-8.17,23.89-8.17h134.52c9.63,0,17.38,2.42,23.25,7.23
	c5.86,4.82,8.8,11.22,8.8,19.17c0,6.29-3.14,14.15-9.43,23.57c-6.29,9.43-9.43,17.29-9.43,23.57c0,4.62,1.46,11.32,4.4,20.12
	l43.37,121.94l39.6-111.89c4.6-12.57,6.92-23.67,6.92-33.32c0-7.12-3.15-14.66-9.43-22.63c-6.28-7.95-9.42-15.08-9.42-21.37
	c0-7.95,2.61-14.35,7.85-19.17c5.24-4.81,11.63-7.23,19.17-7.23h64.12c10.47,0,18.54,2.42,24.2,7.23c5.66,4.82,8.49,11,8.49,18.54
	c0,9.22-4.19,18.02-12.57,26.4l-10.69,10.06c-7.96,7.13-16.13,20.96-24.51,41.49l-72.92,184.18c-7.13,17.6-20.33,26.4-39.6,26.4
	h-49.66c-20.54,0-34.57-8.8-42.12-26.4l-79.83-184.18c-6.28-13.83-14.45-26.19-24.51-37.09l-11.32-11.94
	c-7.96-8.38-11.94-17.38-11.94-27.03C-1997.09-1610.5-1994.16-1616.99-1988.29-1622.44"/>
<path class="st3" d="M-1380-1589.75c31.01-31.43,72.7-47.15,125.09-47.15c18.86,0,37.5,2.31,55.94,6.92v-19.49
	c0-23.46-3.98-40.64-11.94-51.55l-7.54-10.06c-7.54-10.06-11.31-18.86-11.31-26.4c0-7.12,2.51-13.09,7.54-17.91
	c5.03-4.81,11.94-8.06,20.74-9.74l81.09-13.83c10.06-1.67,17.6-2.51,22.63-2.51c8.38,0,15.5,2.41,21.37,7.22
	c5.86,4.83,8.8,12.47,8.8,22.95v326.87c0,9.22,1.98,16.66,5.97,22.31c3.98,5.66,8.27,9.43,12.88,11.32c4.61,1.89,8.9,4.82,12.88,8.8
	c3.98,3.98,5.97,9.11,5.97,15.4c0,11.74-9.85,22.63-29.54,32.68c-12.16,6.29-27.03,11.85-44.63,16.66
	c-17.6,4.81-31.65,7.23-42.12,7.23c-15.51,0-26.09-2.73-31.74-8.17c-5.66-5.44-8.91-13.83-9.74-25.14v-15.72h-2.52
	c-23.05,32.69-57.2,49.03-102.46,49.03c-41.49,0-74.17-13.83-98.06-41.49c-23.89-27.66-35.83-64.74-35.83-111.26
	C-1426.52-1515.99-1411.02-1558.32-1380-1589.75 M-1239.2-1381.06c12.15,0,21.89-4.5,29.23-13.52c7.33-9.01,11-20.43,11-34.26
	v-104.34c0-15.09-3.56-26.82-10.69-35.2c-7.13-8.38-16.97-12.57-29.54-12.57c-33.53,0-50.29,33.11-50.29,99.32
	C-1289.49-1414.58-1272.73-1381.06-1239.2-1381.06"/>
<path class="st3" d="M-1030.81-1591.37c26.98-36.14,65.95-59.29,116.91-69.46c44.79-8.93,82.99-4.89,114.58,12.09
	c31.59,17,50.91,43.16,57.96,78.5c6.55,32.88-5.18,52.31-35.17,58.29l-145.48,29c18.63,48.42,51.36,67.96,98.22,58.61
	c20.96-4.18,39.33-14.89,55.13-32.14c9.86-10.5,18.09-16.43,24.66-17.73c12.73-2.54,20.5,3.18,23.29,17.15
	c2.87,14.39-4.01,32.43-20.62,54.11c-23.53,32.04-61.59,53.3-114.2,63.79c-53.02,10.57-97.48,4.05-133.38-19.56
	c-35.9-23.61-58.43-58.42-67.61-104.46C-1066.28-1512.08-1057.71-1554.81-1030.81-1591.37 M-933.83-1532.51l43.77-8.72
	c23.43-4.67,33.05-17.49,28.87-38.45c-2.29-11.5-7.24-20.24-14.84-26.2c-7.6-5.96-16.74-7.88-27.42-5.75
	C-930.58-1606.22-940.7-1579.85-933.83-1532.51"/>
<path class="st3" d="M-714.44-1402.43c0-10.89,1.36-20.64,4.09-29.23c2.72-8.58,8.27-17.81,16.65-27.66
	c8.38-9.84,19.7-18.23,33.95-25.14c14.24-6.92,33.84-12.99,58.78-18.23c24.93-5.24,54.37-8.69,88.32-10.37v-8.17
	c0-19.27-4.09-33.84-12.26-43.68c-8.17-9.84-19.39-14.77-33.63-14.77c-11.32,0-20.43,3.25-27.34,9.74
	c-6.92,6.5-11.85,13.62-14.77,21.37c-2.94,7.76-8.28,14.88-16.03,21.37c-7.76,6.5-17.92,9.74-30.48,9.74
	c-15.09,0-27.03-3.98-35.83-11.94c-8.8-7.96-13.2-18.23-13.2-30.8c0-23.04,14.55-41.58,43.69-55.63
	c29.12-14.04,66.32-21.06,111.57-21.06c52.8,0,92.61,10.38,119.44,31.12c26.81,20.74,40.23,50.82,40.23,90.2v91.14
	c0,9.22,1.98,16.66,5.97,22.32c3.98,5.65,8.27,9.43,12.88,11.31c4.61,1.88,8.9,4.82,12.89,8.8c3.98,3.99,5.97,9.11,5.97,15.4
	c0,7.13-2.2,12.99-6.6,17.6c-4.4,4.62-12.05,9.64-22.95,15.08c-12.57,6.71-27.97,12.37-46.2,16.97c-18.23,4.61-33,6.92-44.32,6.92
	c-25.14,0-37.71-10.89-37.71-32.69v-16.34h-2.51c-15.09,15.51-30.48,27.56-46.21,36.15c-15.72,8.58-35.31,12.88-58.77,12.88
	c-32.69,0-58.46-8.17-77.32-24.52C-705.01-1350.89-714.44-1373.52-714.44-1402.43 M-583.07-1416.26c0,23.47,11.31,35.2,33.94,35.2
	c10.05,0,18.64-2.83,25.77-8.49c7.12-5.65,10.69-13.3,10.69-22.94v-52.8C-559.6-1459.84-583.07-1443.5-583.07-1416.26"/>
<path class="st3" d="M-1607.54-1341.47c0-8.8,3.77-17.18,11.31-25.14l8.17-9.43c7.54-8.8,11.31-24.93,11.31-48.4v-81.09
	c0-23.04-3.98-39.81-11.94-50.29l-7.54-10.06c-7.54-9.63-11.31-18.43-11.31-26.4c0-7.12,2.61-13.2,7.86-18.23
	c5.24-5.03,12.26-8.17,21.06-9.43l81.09-12.57c6.7-1.26,14.25-1.89,22.63-1.89c19.69,0,29.54,9.85,29.54,29.55v180.41
	c0,22.22,3.98,38.34,11.94,48.4l7.54,9.43c7.54,9.22,11.31,17.4,11.31,24.52c0,8.8-2.83,15.72-8.49,20.74
	c-5.65,5.03-13.51,7.54-23.57,7.54h-129.49c-9.64,0-17.28-2.41-22.94-7.23C-1604.72-1325.85-1607.54-1332.67-1607.54-1341.47"/>
<path class="st11" d="M-1522.78-1589.35c-26.93,0-49.46-7.26-66.96-21.57c-18.46-15.1-28.21-36.86-28.21-62.91
	c0-25.71,9.9-47.28,28.64-62.37c17.68-14.25,40.06-21.48,66.52-21.48c26.52,0,48.83,7.26,66.33,21.58
	c18.46,15.1,28.21,36.63,28.21,62.27c0,26.55-9.8,48.45-28.36,63.34C-1474.06-1596.46-1496.33-1589.35-1522.78-1589.35"/>
<path class="st3" d="M-1597.59-1673.83c0-19.69,7.01-35.2,21.06-46.51c14.04-11.31,31.95-16.97,53.74-16.97
	c21.78,0,39.6,5.66,53.43,16.97c13.83,11.31,20.75,26.82,20.75,46.51c0,20.54-6.92,36.36-20.75,47.46
	c-13.83,11.1-31.65,16.65-53.43,16.65c-22.21,0-40.23-5.65-54.06-16.97C-1590.67-1638-1597.59-1653.71-1597.59-1673.83"/>
<path class="st11" d="M-1976.03,203.6c5.86-5.44,13.83-8.17,23.89-8.17h134.52c9.63,0,17.38,2.42,23.26,7.23
	c5.86,4.82,8.8,11.22,8.8,19.17c0,6.29-3.14,14.15-9.43,23.57c-6.29,9.43-9.43,17.29-9.43,23.57c0,4.62,1.46,11.32,4.4,20.12
	l43.37,121.94l39.6-111.89c4.6-12.57,6.92-23.67,6.92-33.32c0-7.12-3.15-14.66-9.43-22.63c-6.28-7.95-9.42-15.08-9.42-21.37
	c0-7.95,2.61-14.35,7.85-19.17c5.24-4.81,11.63-7.23,19.17-7.23h64.12c10.47,0,18.54,2.42,24.2,7.23c5.66,4.82,8.49,11,8.49,18.54
	c0,9.22-4.19,18.02-12.57,26.4l-10.69,10.06c-7.96,7.13-16.13,20.96-24.51,41.49l-72.92,184.17c-7.13,17.6-20.33,26.4-39.6,26.4
	h-49.66c-20.54,0-34.57-8.8-42.12-26.4l-79.83-184.17c-6.28-13.83-14.45-26.19-24.51-37.09l-11.32-11.94
	c-7.96-8.38-11.94-17.38-11.94-27.03C-1984.83,215.54-1981.91,209.05-1976.03,203.6"/>
<path class="st11" d="M-1367.75,236.29c31.01-31.43,72.7-47.15,125.09-47.15c18.86,0,37.5,2.31,55.94,6.92v-19.49
	c0-23.46-3.98-40.64-11.94-51.55l-7.54-10.06c-7.54-10.06-11.31-18.86-11.31-26.4c0-7.12,2.51-13.09,7.54-17.91
	c5.03-4.81,11.94-8.06,20.74-9.74l81.09-13.83c10.06-1.67,17.6-2.51,22.63-2.51c8.38,0,15.5,2.41,21.37,7.22
	c5.86,4.83,8.8,12.47,8.8,22.95v326.87c0,9.22,1.98,16.66,5.97,22.31c3.98,5.66,8.27,9.43,12.88,11.32c4.61,1.89,8.9,4.82,12.88,8.8
	c3.98,3.98,5.97,9.11,5.97,15.4c0,11.74-9.85,22.63-29.54,32.68c-12.16,6.29-27.03,11.85-44.63,16.66
	c-17.6,4.81-31.65,7.23-42.12,7.23c-15.51,0-26.09-2.73-31.74-8.17c-5.66-5.44-8.91-13.83-9.74-25.14v-15.72h-2.52
	c-23.05,32.69-57.2,49.03-102.46,49.03c-41.49,0-74.17-13.83-98.06-41.49c-23.89-27.66-35.83-64.74-35.83-111.26
	C-1414.26,310.05-1398.76,267.72-1367.75,236.29 M-1226.94,444.98c12.15,0,21.89-4.5,29.23-13.52c7.33-9.01,11-20.43,11-34.26
	V292.86c0-15.09-3.57-26.82-10.69-35.2c-7.13-8.38-16.97-12.57-29.54-12.57c-33.53,0-50.29,33.11-50.29,99.32
	C-1277.23,411.46-1260.47,444.98-1226.94,444.98"/>
<path class="st11" d="M-1018.56,234.67c26.98-36.14,65.95-59.29,116.91-69.46c44.79-8.93,82.99-4.89,114.58,12.09
	c31.59,17,50.91,43.16,57.96,78.5c6.55,32.88-5.18,52.31-35.17,58.29l-145.48,29c18.63,48.42,51.36,67.96,98.22,58.61
	c20.96-4.18,39.33-14.89,55.13-32.14c9.86-10.5,18.09-16.43,24.66-17.73c12.73-2.54,20.5,3.18,23.29,17.15
	c2.87,14.39-4.01,32.43-20.62,54.11c-23.53,32.04-61.59,53.3-114.2,63.79c-53.02,10.57-97.48,4.05-133.38-19.56
	c-35.9-23.61-58.43-58.42-67.61-104.46C-1054.03,313.96-1045.46,271.23-1018.56,234.67 M-921.57,293.54l43.77-8.72
	c23.43-4.67,33.05-17.49,28.87-38.45c-2.29-11.5-7.24-20.24-14.84-26.2c-7.6-5.96-16.74-7.88-27.42-5.75
	C-918.32,219.82-928.44,246.19-921.57,293.54"/>
<path class="st11" d="M-702.19,423.61c0-10.89,1.36-20.64,4.09-29.23c2.72-8.58,8.27-17.81,16.65-27.66
	c8.38-9.84,19.7-18.23,33.95-25.14c14.24-6.92,33.84-12.99,58.78-18.23c24.93-5.24,54.37-8.69,88.32-10.37v-8.17
	c0-19.27-4.09-33.84-12.26-43.68c-8.17-9.84-19.39-14.77-33.63-14.77c-11.32,0-20.43,3.25-27.34,9.74
	c-6.92,6.5-11.85,13.62-14.77,21.37c-2.94,7.76-8.28,14.88-16.03,21.37c-7.76,6.5-17.92,9.74-30.48,9.74
	c-15.09,0-27.03-3.98-35.83-11.94c-8.8-7.96-13.2-18.23-13.2-30.8c0-23.04,14.55-41.58,43.69-55.63
	c29.12-14.04,66.32-21.06,111.57-21.06c52.8,0,92.61,10.38,119.44,31.12c26.81,20.74,40.23,50.82,40.23,90.2v91.14
	c0,9.22,1.98,16.66,5.97,22.32c3.98,5.65,8.27,9.43,12.88,11.31c4.61,1.88,8.9,4.82,12.89,8.8c3.98,3.99,5.97,9.11,5.97,15.4
	c0,7.13-2.2,12.99-6.6,17.6c-4.4,4.62-12.05,9.64-22.95,15.08c-12.57,6.71-27.97,12.37-46.2,16.97c-18.23,4.61-33,6.92-44.32,6.92
	c-25.14,0-37.71-10.89-37.71-32.69v-16.34h-2.51c-15.09,15.51-30.48,27.56-46.21,36.15c-15.72,8.58-35.31,12.88-58.77,12.88
	c-32.69,0-58.46-8.17-77.32-24.52C-692.75,475.16-702.19,452.52-702.19,423.61 M-570.81,409.78c0,23.47,11.31,35.2,33.94,35.2
	c10.05,0,18.64-2.83,25.77-8.49c7.12-5.65,10.69-13.3,10.69-22.94v-52.8C-547.35,366.2-570.81,382.55-570.81,409.78"/>
<path class="st11" d="M-1413.63,459.43l-7.54-9.43c-7.96-10.06-11.94-26.18-11.94-48.4V221.2c0-5.47-0.76-10.18-2.28-14.13
	c-2.71,3.04-5.7,5.87-8.96,8.49c-17.46,14.03-39.73,21.14-66.18,21.14c-26.93,0-49.46-7.26-66.96-21.57
	c-1.5-1.23-2.94-2.51-4.33-3.82c-2.05,1.23-3.94,2.63-5.62,4.24c-5.24,5.03-7.86,11.11-7.86,18.23c0,7.97,3.77,16.77,11.31,26.4
	l7.54,10.06c7.96,10.48,11.94,27.25,11.94,50.29v81.09c0,23.47-3.77,39.6-11.31,48.4l-8.17,9.43c-7.54,7.97-11.31,16.34-11.31,25.14
	c0,8.8,2.83,15.62,8.49,20.43c5.66,4.82,13.3,7.23,22.94,7.23h129.49c10.06,0,17.91-2.51,23.57-7.54
	c5.66-5.03,8.49-11.94,8.49-20.74C-1402.31,476.83-1406.08,468.65-1413.63,459.43z"/>
<path class="st11" d="M-1585.33,152.21c0-19.69,7.01-35.2,21.06-46.51c14.04-11.31,31.95-16.97,53.74-16.97
	c21.78,0,39.6,5.66,53.43,16.97c13.83,11.31,20.75,26.82,20.75,46.51c0,20.54-6.92,36.36-20.75,47.46
	c-13.83,11.1-31.65,16.65-53.43,16.65c-22.21,0-40.23-5.65-54.06-16.97C-1578.41,188.04-1585.33,172.33-1585.33,152.21"/>
<path class="st3" d="M113.5,191.35c5.86-5.44,13.83-8.17,23.89-8.17H271.9c9.63,0,17.38,2.42,23.26,7.23
	c5.86,4.82,8.8,11.22,8.8,19.17c0,6.29-3.14,14.15-9.43,23.57c-6.29,9.43-9.43,17.29-9.43,23.57c0,4.62,1.46,11.32,4.4,20.12
	l43.37,121.94l39.6-111.89c4.6-12.57,6.92-23.67,6.92-33.32c0-7.12-3.15-14.66-9.43-22.63c-6.28-7.95-9.42-15.08-9.42-21.37
	c0-7.95,2.61-14.35,7.85-19.17c5.24-4.81,11.63-7.23,19.17-7.23h64.12c10.47,0,18.54,2.42,24.2,7.23c5.66,4.82,8.49,11,8.49,18.54
	c0,9.22-4.19,18.02-12.57,26.4l-10.69,10.06c-7.96,7.13-16.13,20.96-24.51,41.49l-72.92,184.17c-7.13,17.6-20.33,26.4-39.6,26.4
	h-49.66c-20.54,0-34.57-8.8-42.12-26.4l-79.83-184.17c-6.28-13.83-14.45-26.19-24.51-37.09l-11.32-11.94
	c-7.96-8.38-11.94-17.38-11.94-27.03C104.7,203.29,107.62,196.8,113.5,191.35"/>
<path class="st3" d="M721.78,224.04c31.01-31.43,72.7-47.15,125.09-47.15c18.86,0,37.5,2.31,55.94,6.92v-19.49
	c0-23.46-3.98-40.64-11.94-51.55l-7.54-10.06c-7.54-10.06-11.31-18.86-11.31-26.4c0-7.12,2.51-13.09,7.54-17.91
	c5.03-4.81,11.94-8.06,20.74-9.74l81.09-13.83c10.06-1.67,17.6-2.51,22.63-2.51c8.38,0,15.5,2.41,21.37,7.22
	c5.86,4.83,8.8,12.47,8.8,22.95v326.87c0,9.22,1.98,16.66,5.97,22.31c3.98,5.66,8.27,9.43,12.88,11.32c4.61,1.89,8.9,4.82,12.88,8.8
	c3.98,3.98,5.97,9.11,5.97,15.4c0,11.74-9.85,22.63-29.54,32.68c-12.16,6.29-27.03,11.85-44.63,16.66
	c-17.6,4.81-31.65,7.23-42.12,7.23c-15.51,0-26.09-2.73-31.74-8.17c-5.66-5.44-8.91-13.83-9.74-25.14v-15.72h-2.52
	c-23.05,32.69-57.2,49.03-102.46,49.03c-41.49,0-74.17-13.83-98.06-41.49s-35.83-64.74-35.83-111.26
	C675.27,297.79,690.77,255.46,721.78,224.04 M862.59,432.73c12.15,0,21.89-4.5,29.23-13.52c7.33-9.01,11-20.43,11-34.26V280.61
	c0-15.09-3.57-26.82-10.69-35.2c-7.13-8.38-16.97-12.57-29.54-12.57c-33.53,0-50.29,33.11-50.29,99.32
	C812.3,399.21,829.06,432.73,862.59,432.73"/>
<path class="st3" d="M1070.97,222.41c26.98-36.14,65.95-59.29,116.91-69.46c44.79-8.93,82.99-4.89,114.58,12.09
	c31.59,17,50.91,43.16,57.96,78.5c6.55,32.88-5.18,52.31-35.17,58.29l-145.48,29c18.63,48.42,51.36,67.96,98.22,58.61
	c20.96-4.18,39.33-14.89,55.13-32.14c9.86-10.5,18.09-16.43,24.66-17.73c12.73-2.54,20.5,3.18,23.29,17.15
	c2.87,14.39-4.01,32.43-20.62,54.11c-23.53,32.04-61.59,53.3-114.2,63.79c-53.02,10.57-97.48,4.05-133.38-19.56
	c-35.9-23.61-58.43-58.42-67.61-104.46C1035.51,301.71,1044.07,258.98,1070.97,222.41 M1167.96,281.28l43.77-8.72
	c23.43-4.67,33.05-17.49,28.87-38.45c-2.29-11.5-7.24-20.24-14.84-26.2c-7.6-5.96-16.74-7.88-27.42-5.75
	C1171.21,207.57,1161.09,233.94,1167.96,281.28"/>
<path class="st3" d="M1387.34,411.36c0-10.89,1.36-20.64,4.09-29.23c2.72-8.58,8.27-17.81,16.65-27.66
	c8.38-9.84,19.7-18.23,33.95-25.14c14.24-6.92,33.84-12.99,58.78-18.23c24.93-5.24,54.37-8.69,88.32-10.37v-8.17
	c0-19.27-4.09-33.84-12.26-43.68c-8.17-9.84-19.39-14.77-33.63-14.77c-11.32,0-20.43,3.25-27.34,9.74
	c-6.92,6.5-11.85,13.62-14.77,21.37c-2.94,7.76-8.28,14.88-16.03,21.37c-7.76,6.5-17.92,9.74-30.48,9.74
	c-15.09,0-27.03-3.98-35.83-11.94c-8.8-7.96-13.2-18.23-13.2-30.8c0-23.04,14.55-41.58,43.69-55.63
	c29.12-14.04,66.32-21.06,111.57-21.06c52.8,0,92.61,10.38,119.44,31.12c26.81,20.74,40.23,50.82,40.23,90.2v91.14
	c0,9.22,1.98,16.66,5.97,22.32c3.98,5.65,8.27,9.43,12.88,11.31c4.61,1.88,8.9,4.82,12.89,8.8c3.98,3.99,5.97,9.11,5.97,15.4
	c0,7.13-2.2,12.99-6.6,17.6c-4.4,4.62-12.05,9.64-22.95,15.08c-12.57,6.71-27.97,12.37-46.2,16.97c-18.23,4.61-33,6.92-44.32,6.92
	c-25.14,0-37.71-10.89-37.71-32.69v-16.34h-2.51c-15.09,15.51-30.48,27.56-46.21,36.15c-15.72,8.58-35.31,12.88-58.77,12.88
	c-32.69,0-58.46-8.17-77.32-24.52C1396.78,462.9,1387.34,440.27,1387.34,411.36 M1518.72,397.52c0,23.47,11.31,35.2,33.94,35.2
	c10.05,0,18.64-2.83,25.77-8.49c7.12-5.65,10.69-13.3,10.69-22.94v-52.8C1542.19,353.95,1518.72,370.29,1518.72,397.52"/>
<path class="st3" d="M675.91,447.17l-7.54-9.43c-7.96-10.06-11.94-26.18-11.94-48.4V208.94c0-5.47-0.76-10.18-2.28-14.13
	c-2.71,3.04-5.7,5.87-8.96,8.49c-17.46,14.03-39.73,21.14-66.18,21.14c-26.93,0-49.46-7.26-66.96-21.57
	c-1.5-1.23-2.94-2.51-4.33-3.82c-2.05,1.23-3.94,2.63-5.62,4.24c-5.24,5.03-7.86,11.11-7.86,18.23c0,7.97,3.77,16.77,11.31,26.4
	l7.54,10.06c7.96,10.48,11.94,27.25,11.94,50.29v81.09c0,23.47-3.77,39.6-11.31,48.4l-8.17,9.43c-7.54,7.97-11.31,16.34-11.31,25.14
	c0,8.8,2.83,15.62,8.49,20.43c5.66,4.82,13.3,7.23,22.94,7.23h129.49c10.06,0,17.91-2.51,23.57-7.54
	c5.66-5.03,8.49-11.94,8.49-20.74C687.22,464.57,683.45,456.4,675.91,447.17z"/>
<path class="st3" d="M504.2,139.95c0-19.69,7.01-35.2,21.06-46.51c14.04-11.31,31.95-16.97,53.74-16.97
	c21.78,0,39.6,5.66,53.43,16.97c13.83,11.31,20.75,26.82,20.75,46.51c0,20.54-6.92,36.36-20.75,47.46
	c-13.83,11.1-31.65,16.65-53.43,16.65c-22.21,0-40.23-5.65-54.06-16.97C511.12,175.78,504.2,160.07,504.2,139.95"/>
<rect x="-2185.51" y="-1095.67" class="st12" width="2032.32" height="90.43"/>
<rect x="-2185.51" y="-791.06" class="st13" width="2032.32" height="90.43"/>
<rect x="-2185.51" y="-1024.27" class="st14" width="2032.32" height="90.43"/>
<rect x="-2185.51" y="-948.12" class="st15" width="2032.32" height="90.43"/>
<rect x="-2185.51" y="-871.97" class="st16" width="2032.32" height="90.43"/>
<rect x="-2088.17" y="-3859.81" class="st17" width="1920" height="1080"/>
</svg>
